<svg width="17" height="10" viewBox="0 0 17 10" fill="none" xmlns="http://www.w3.org/2000/svg">
<path d="M8.5013 9.66341C8.30686 9.66341 8.11873 9.62695 7.93693 9.55404C7.75415 9.48112 7.602 9.3839 7.48047 9.26237L0.772135 2.55404C0.504774 2.28668 0.371094 1.9464 0.371094 1.5332C0.371094 1.12001 0.504774 0.77973 0.772135 0.512369C1.0395 0.245008 1.37977 0.111328 1.79297 0.111328C2.20616 0.111328 2.54644 0.245008 2.8138 0.512369L8.5013 6.19987L14.1888 0.512369C14.4562 0.245008 14.7964 0.111328 15.2096 0.111328C15.6228 0.111328 15.9631 0.245008 16.2305 0.512369C16.4978 0.77973 16.6315 1.12001 16.6315 1.5332C16.6315 1.9464 16.4978 2.28668 16.2305 2.55404L9.52213 9.26237C9.3763 9.4082 9.21832 9.51126 9.04818 9.57154C8.87804 9.63279 8.69575 9.66341 8.5013 9.66341Z" fill="#B13CF1"/>
</svg>
