<svg width="17" height="11" viewBox="0 0 17 11" fill="none" xmlns="http://www.w3.org/2000/svg">
<path d="M8.4987 0.486979C8.69314 0.486979 8.88127 0.523438 9.06307 0.596354C9.24585 0.669271 9.398 0.766494 9.51953 0.888021L16.2279 7.59635C16.4952 7.86371 16.6289 8.20399 16.6289 8.61719C16.6289 9.03038 16.4952 9.37066 16.2279 9.63802C15.9605 9.90538 15.6202 10.0391 15.207 10.0391C14.7938 10.0391 14.4536 9.90538 14.1862 9.63802L8.4987 3.95052L2.8112 9.63802C2.54384 9.90538 2.20356 10.0391 1.79036 10.0391C1.37717 10.0391 1.03689 9.90538 0.769532 9.63802C0.502171 9.37066 0.368488 9.03038 0.368488 8.61719C0.368488 8.20399 0.502171 7.86371 0.769532 7.59635L7.47787 0.888021C7.6237 0.742187 7.78168 0.639132 7.95182 0.578855C8.12196 0.517605 8.30425 0.486979 8.4987 0.486979Z" fill="#B13CF1"/>
</svg>
