<svg width="40" height="40" viewBox="0 0 40 40" fill="none" xmlns="http://www.w3.org/2000/svg">
<path d="M12 40C10.9 40 9.95867 39.6087 9.176 38.826C8.392 38.042 8 37.1 8 36C8 34.9 8.392 33.958 9.176 33.174C9.95867 32.3913 10.9 32 12 32C13.1 32 14.0413 32.3913 14.824 33.174C15.608 33.958 16 34.9 16 36C16 37.1 15.608 38.042 14.824 38.826C14.0413 39.6087 13.1 40 12 40ZM32 40C30.9 40 29.9587 39.6087 29.176 38.826C28.392 38.042 28 37.1 28 36C28 34.9 28.392 33.958 29.176 33.174C29.9587 32.3913 30.9 32 32 32C33.1 32 34.042 32.3913 34.826 33.174C35.6087 33.958 36 34.9 36 36C36 37.1 35.6087 38.042 34.826 38.826C34.042 39.6087 33.1 40 32 40ZM10.3 8L15.1 18H29.1L34.6 8H10.3ZM12 30C10.5 30 9.36667 29.3413 8.6 28.024C7.83333 26.708 7.8 25.4 8.5 24.1L11.2 19.2L4 4H1.95C1.38333 4 0.916667 3.808 0.55 3.424C0.183333 3.04133 0 2.56667 0 2C0 1.43333 0.192 0.958 0.576 0.574C0.958667 0.191333 1.43333 0 2 0H5.25C5.61667 0 5.96667 0.1 6.3 0.3C6.63333 0.5 6.88333 0.783333 7.05 1.15L8.4 4H37.9C38.8 4 39.4167 4.33333 39.75 5C40.0833 5.66667 40.0667 6.36667 39.7 7.1L32.6 19.9C32.2333 20.5667 31.75 21.0833 31.15 21.45C30.55 21.8167 29.8667 22 29.1 22H14.2L12 26H34.05C34.6167 26 35.0833 26.1913 35.45 26.574C35.8167 26.958 36 27.4333 36 28C36 28.5667 35.808 29.0413 35.424 29.424C35.0413 29.808 34.5667 30 34 30H12Z" fill="black"/>
</svg>
