<svg width="48" height="48" viewBox="0 0 48 48" fill="none" xmlns="http://www.w3.org/2000/svg">
<path d="M24 38.4C19 38.4 14.58 35.84 12 32C12.06 28 20 25.8 24 25.8C28 25.8 35.94 28 36 32C34.6778 33.9688 32.8917 35.5823 30.7991 36.6984C28.7065 37.8144 26.3716 38.3988 24 38.4ZM24 10C25.5913 10 27.1174 10.6321 28.2426 11.7574C29.3679 12.8826 30 14.4087 30 16C30 17.5913 29.3679 19.1174 28.2426 20.2426C27.1174 21.3679 25.5913 22 24 22C22.4087 22 20.8826 21.3679 19.7574 20.2426C18.6321 19.1174 18 17.5913 18 16C18 14.4087 18.6321 12.8826 19.7574 11.7574C20.8826 10.6321 22.4087 10 24 10ZM24 4C21.3736 4 18.7728 4.51732 16.3463 5.52241C13.9198 6.5275 11.715 8.00069 9.85786 9.85786C6.10714 13.6086 4 18.6957 4 24C4 29.3043 6.10714 34.3914 9.85786 38.1421C11.715 39.9993 13.9198 41.4725 16.3463 42.4776C18.7728 43.4827 21.3736 44 24 44C29.3043 44 34.3914 41.8929 38.1421 38.1421C41.8929 34.3914 44 29.3043 44 24C44 12.94 35 4 24 4Z" fill="black"/>
</svg>
