<svg width="24" height="22" viewBox="0 0 24 22" fill="none" xmlns="http://www.w3.org/2000/svg">
<path d="M18 12.0752C18.5967 12.0752 19.169 11.8381 19.591 11.4162C20.0129 10.9942 20.25 10.4219 20.25 9.8252C20.25 9.22846 20.0129 8.65616 19.591 8.2342C19.169 7.81225 18.5967 7.5752 18 7.5752C17.4033 7.5752 16.831 7.81225 16.409 8.2342C15.9871 8.65616 15.75 9.22846 15.75 9.8252C15.75 10.4219 15.9871 10.9942 16.409 11.4162C16.831 11.8381 17.4033 12.0752 18 12.0752ZM18 11.3252C17.6022 11.3252 17.2206 11.1672 16.9393 10.8859C16.658 10.6046 16.5 10.223 16.5 9.8252C16.5 9.42737 16.658 9.04584 16.9393 8.76454C17.2206 8.48323 17.6022 8.3252 18 8.3252C18.3978 8.3252 18.7794 8.48323 19.0607 8.76454C19.342 9.04584 19.5 9.42737 19.5 9.8252C19.5 10.223 19.342 10.6046 19.0607 10.8859C18.7794 11.1672 18.3978 11.3252 18 11.3252ZM12.375 4.3877C12.375 4.83525 12.1972 5.26447 11.8807 5.58094C11.5643 5.89741 11.1351 6.0752 10.6875 6.0752C10.2399 6.0752 9.81073 5.89741 9.49426 5.58094C9.17779 5.26447 9 4.83525 9 4.3877C9 3.94014 9.17779 3.51092 9.49426 3.19445C9.81073 2.87799 10.2399 2.7002 10.6875 2.7002C11.1351 2.7002 11.5643 2.87799 11.8807 3.19445C12.1972 3.51092 12.375 3.94014 12.375 4.3877ZM7.875 7.3877C7.875 7.6093 7.83135 7.82874 7.74655 8.03347C7.66174 8.23821 7.53744 8.42424 7.38074 8.58094C7.22404 8.73764 7.03802 8.86194 6.83328 8.94674C6.62854 9.03155 6.40911 9.0752 6.1875 9.0752C5.96589 9.0752 5.74646 9.03155 5.54172 8.94674C5.33698 8.86194 5.15096 8.73764 4.99426 8.58094C4.83756 8.42424 4.71326 8.23821 4.62845 8.03347C4.54365 7.82874 4.5 7.6093 4.5 7.3877C4.5 6.94014 4.67779 6.51092 4.99426 6.19445C5.31073 5.87799 5.73995 5.7002 6.1875 5.7002C6.63505 5.7002 7.06428 5.87799 7.38074 6.19445C7.69721 6.51092 7.875 6.94014 7.875 7.3877ZM6.1875 14.3252C6.40911 14.3252 6.62854 14.2815 6.83328 14.1967C7.03802 14.1119 7.22404 13.9876 7.38074 13.8309C7.53744 13.6742 7.66174 13.4882 7.74655 13.2835C7.83135 13.0787 7.875 12.8593 7.875 12.6377C7.875 12.4161 7.83135 12.1967 7.74655 11.9919C7.66174 11.7872 7.53744 11.6012 7.38074 11.4445C7.22404 11.2878 7.03802 11.1635 6.83328 11.0786C6.62854 10.9938 6.40911 10.9502 6.1875 10.9502C5.73995 10.9502 5.31073 11.128 4.99426 11.4445C4.67779 11.7609 4.5 12.1901 4.5 12.6377C4.5 13.0852 4.67779 13.5145 4.99426 13.8309C5.31073 14.1474 5.73995 14.3252 6.1875 14.3252ZM12 16.0127C12 16.4602 11.8222 16.8895 11.5057 17.2059C11.1893 17.5224 10.7601 17.7002 10.3125 17.7002C9.86495 17.7002 9.43573 17.5224 9.11926 17.2059C8.80279 16.8895 8.625 16.4602 8.625 16.0127C8.625 15.5651 8.80279 15.1359 9.11926 14.8195C9.43573 14.503 9.86495 14.3252 10.3125 14.3252C10.7601 14.3252 11.1893 14.503 11.5057 14.8195C11.8222 15.1359 12 15.5651 12 16.0127Z" fill="currentColor"/>
<path d="M12.1507 21.0752C10.057 20.9223 8.03517 20.2461 6.27071 19.1087C3.69194 17.598 1.81785 15.1259 1.05971 12.2349C0.732952 10.9763 0.660628 9.66511 0.846978 8.37818C1.03333 7.09124 1.47461 5.85443 2.14496 4.74018C4.96271 0.0901804 11.2792 -1.28457 16.836 1.54818C20.1502 3.23943 22.629 6.19143 23.1495 9.07068C23.3224 9.86514 23.303 10.6894 23.0926 11.4748C22.8823 12.2602 22.4873 12.984 21.9405 13.5857C20.322 15.3527 18.2332 15.3279 16.7152 15.3107H16.71C15.7012 15.2927 15.0712 15.3107 14.9205 15.6107C14.973 15.8417 15.0645 16.0637 15.1905 16.2654C15.5692 16.7981 15.7595 17.442 15.7311 18.095C15.7027 18.748 15.4573 19.3729 15.0337 19.8707C14.6781 20.2795 14.233 20.6009 13.733 20.8098C13.233 21.0187 12.6915 21.1095 12.1507 21.0752ZM10.8975 1.57518C9.41728 1.52489 7.94959 1.86166 6.63939 2.5522C5.3292 3.24275 4.22184 4.26318 3.42671 5.51268C2.85937 6.45789 2.48635 7.5068 2.32949 8.59799C2.17263 9.68917 2.23509 10.8007 2.51321 11.8674C3.17271 14.3718 4.79931 16.512 7.03571 17.8179C9.54896 19.3089 12.7612 20.2929 13.869 18.9227C14.4592 18.1967 14.2717 17.7489 13.86 16.9562C13.6476 16.669 13.5107 16.3331 13.462 15.9793C13.4132 15.6255 13.4541 15.2651 13.581 14.9312C14.1667 13.7762 15.4695 13.7889 16.731 13.8062C18.1072 13.8249 19.6687 13.8437 20.835 12.5694C21.2203 12.1347 21.4973 11.6148 21.6433 11.0525C21.7893 10.4902 21.8002 9.90126 21.675 9.33393C21.2415 6.93393 19.023 4.34418 16.1565 2.88393C14.5314 2.0405 12.7298 1.59334 10.899 1.57893L10.8975 1.57518Z" fill="currentColor"/>
</svg>
