<svg width="24" height="25" viewBox="0 0 24 25" fill="none" xmlns="http://www.w3.org/2000/svg">
<path d="M19.9989 14.8251C20.2538 14.8253 20.4989 14.9229 20.6843 15.0979C20.8696 15.2729 20.9811 15.512 20.9961 15.7665C21.011 16.0209 20.9282 16.2714 20.7646 16.4669C20.601 16.6623 20.369 16.788 20.1159 16.8181L19.9989 16.8251H6.41289L8.70589 19.1181C8.88524 19.298 8.98937 19.5395 8.99712 19.7934C9.00488 20.0474 8.91568 20.2948 8.74764 20.4853C8.57961 20.6759 8.34534 20.7954 8.09242 20.8195C7.8395 20.8435 7.58688 20.7705 7.38589 20.6151L7.29189 20.5321L3.46189 16.7021C2.79689 16.0381 3.22289 14.9191 4.12489 14.8311L4.23989 14.8251H19.9989ZM15.2919 5.11806C15.4641 4.94588 15.6932 4.84245 15.9362 4.82717C16.1792 4.81189 16.4195 4.88581 16.6119 5.03506L16.7059 5.11806L20.5359 8.94806C21.2009 9.61206 20.7749 10.7311 19.8729 10.8191L19.7579 10.8251H3.99889C3.74401 10.8248 3.49886 10.7272 3.31352 10.5522C3.12819 10.3772 3.01666 10.1381 3.00172 9.88366C2.98678 9.62922 3.06957 9.37868 3.23316 9.18322C3.39675 8.98777 3.6288 8.86216 3.88189 8.83206L3.99889 8.82506H17.5849L15.2919 6.53206C15.1044 6.34453 14.9991 6.09022 14.9991 5.82506C14.9991 5.55989 15.1044 5.30558 15.2919 5.11806Z" fill="currentColor"/>
</svg>
