<svg width="24" height="25" viewBox="0 0 24 25" fill="none" xmlns="http://www.w3.org/2000/svg">
<path d="M9.1445 12.5321C8.76935 12.9073 8.55859 13.4161 8.55859 13.9466C8.55859 14.4771 8.76935 14.986 9.1445 15.3611C9.51965 15.7363 10.0285 15.947 10.559 15.947C11.0895 15.947 11.5984 15.7363 11.9735 15.3611L11.9985 15.3351L12.0235 15.3611C12.2093 15.5469 12.4298 15.6942 12.6725 15.7947C12.9152 15.8953 13.1753 15.947 13.438 15.947C13.7007 15.947 13.9608 15.8953 14.2035 15.7947C14.4462 15.6942 14.6667 15.5469 14.8525 15.3611C15.0383 15.1753 15.1856 14.9548 15.2861 14.7121C15.3867 14.4694 15.4384 14.2093 15.4384 13.9466C15.4384 13.6839 15.3867 13.4238 15.2861 13.1811C15.1856 12.9384 15.0383 12.7179 14.8525 12.5321L12.0225 9.7051L11.9985 9.7291L11.9735 9.7041L9.1445 12.5321Z" fill="#2A2636"/>
<path fill-rule="evenodd" clip-rule="evenodd" d="M3 20.8252C3 21.6208 3.31607 22.3839 3.87868 22.9465C4.44129 23.5091 5.20435 23.8252 6 23.8252H18C18.7956 23.8252 19.5587 23.5091 20.1213 22.9465C20.6839 22.3839 21 21.6208 21 20.8252V4.8252C21 4.02955 20.6839 3.26648 20.1213 2.70387C19.5587 2.14127 18.7956 1.8252 18 1.8252H6C5.20435 1.8252 4.44129 2.14127 3.87868 2.70387C3.31607 3.26648 3 4.02955 3 4.8252V20.8252ZM6 21.8252H18C18.2652 21.8252 18.5196 21.7198 18.7071 21.5323C18.8946 21.3448 19 21.0904 19 20.8252V4.8252C19 4.55998 18.8946 4.30562 18.7071 4.11809C18.5196 3.93055 18.2652 3.8252 18 3.8252H6C5.73478 3.8252 5.48043 3.93055 5.29289 4.11809C5.10536 4.30562 5 4.55998 5 4.8252V20.8252C5 21.0904 5.10536 21.3448 5.29289 21.5323C5.48043 21.7198 5.73478 21.8252 6 21.8252Z" fill="#2A2636"/>
</svg>
