<svg width="40" height="41" viewBox="0 0 40 41" fill="none" xmlns="http://www.w3.org/2000/svg">
<path d="M12 40.8252C10.9 40.8252 9.95866 40.4339 9.176 39.6512C8.392 38.8672 8 37.9252 8 36.8252C8 35.7252 8.392 34.7832 9.176 33.9992C9.95866 33.2165 10.9 32.8252 12 32.8252C13.1 32.8252 14.0413 33.2165 14.824 33.9992C15.608 34.7832 16 35.7252 16 36.8252C16 37.9252 15.608 38.8672 14.824 39.6512C14.0413 40.4339 13.1 40.8252 12 40.8252ZM32 40.8252C30.9 40.8252 29.9587 40.4339 29.176 39.6512C28.392 38.8672 28 37.9252 28 36.8252C28 35.7252 28.392 34.7832 29.176 33.9992C29.9587 33.2165 30.9 32.8252 32 32.8252C33.1 32.8252 34.042 33.2165 34.826 33.9992C35.6087 34.7832 36 35.7252 36 36.8252C36 37.9252 35.6087 38.8672 34.826 39.6512C34.042 40.4339 33.1 40.8252 32 40.8252ZM10.3 8.82519L15.1 18.8252H29.1L34.6 8.82519H10.3ZM12 30.8252C10.5 30.8252 9.36667 30.1665 8.6 28.8492C7.83333 27.5332 7.8 26.2252 8.5 24.9252L11.2 20.0252L4 4.82519H1.95C1.38333 4.82519 0.916667 4.63319 0.55 4.24919C0.183333 3.86653 0 3.39186 0 2.8252C0 2.25853 0.192 1.7832 0.576 1.3992C0.958667 1.01653 1.43333 0.825195 2 0.825195H5.25C5.61667 0.825195 5.96667 0.925195 6.3 1.1252C6.63333 1.3252 6.88333 1.60853 7.05 1.9752L8.4 4.82519H37.9C38.8 4.82519 39.4167 5.15853 39.75 5.82519C40.0833 6.49186 40.0667 7.19186 39.7 7.92519L32.6 20.7252C32.2333 21.3919 31.75 21.9085 31.15 22.2752C30.55 22.6419 29.8667 22.8252 29.1 22.8252H14.2L12 26.8252H34.05C34.6167 26.8252 35.0833 27.0165 35.45 27.3992C35.8167 27.7832 36 28.2585 36 28.8252C36 29.3919 35.808 29.8665 35.424 30.2492C35.0413 30.6332 34.5667 30.8252 34 30.8252H12Z" fill="#B13CF1"/>
</svg>
