<svg width="24" height="25" viewBox="0 0 24 25" fill="none" xmlns="http://www.w3.org/2000/svg">
<path d="M19.5 7.57422H4.5C3.25736 7.57422 2.25 8.58158 2.25 9.82422V18.8242C2.25 20.0669 3.25736 21.0742 4.5 21.0742H19.5C20.7426 21.0742 21.75 20.0669 21.75 18.8242V9.82422C21.75 8.58158 20.7426 7.57422 19.5 7.57422Z" stroke="black" stroke-width="1.5" stroke-linejoin="round"/>
<path d="M19.2825 7.57346V6.16721C19.2824 5.82231 19.2062 5.48168 19.0592 5.16963C18.9123 4.85759 18.6984 4.58181 18.4326 4.36198C18.1668 4.14214 17.8558 3.98368 17.5217 3.89789C17.1877 3.81209 16.8388 3.80109 16.5 3.86565L4.155 5.97268C3.6189 6.07485 3.13526 6.36089 2.78749 6.78148C2.43972 7.20207 2.24963 7.73084 2.25 8.27659V10.5735" stroke="black" stroke-width="1.5" stroke-linejoin="round"/>
<path d="M17.25 15.8242C16.9533 15.8242 16.6633 15.7362 16.4166 15.5714C16.17 15.4066 15.9777 15.1723 15.8642 14.8982C15.7506 14.6242 15.7209 14.3226 15.7788 14.0316C15.8367 13.7406 15.9796 13.4733 16.1893 13.2636C16.3991 13.0538 16.6664 12.9109 16.9574 12.853C17.2483 12.7952 17.5499 12.8249 17.824 12.9384C18.0981 13.0519 18.3324 13.2442 18.4972 13.4909C18.662 13.7375 18.75 14.0275 18.75 14.3242C18.75 14.722 18.592 15.1036 18.3107 15.3849C18.0294 15.6662 17.6478 15.8242 17.25 15.8242Z" fill="black"/>
</svg>
