<svg width="20" height="24" viewBox="0 0 20 24" fill="none" xmlns="http://www.w3.org/2000/svg">
<path d="M9.87828 14.3312H9.93078C11.0558 14.3612 11.9558 15.2762 11.9558 16.4012C11.9558 17.3612 11.3033 18.1637 10.4183 18.4037V19.2437C10.4183 19.5437 10.1783 19.7837 9.87828 19.7837C9.57828 19.7837 9.33828 19.5437 9.33828 19.2437V18.4037C8.8976 18.2852 8.50821 18.0248 8.2303 17.6629C7.9524 17.3009 7.80144 16.8575 7.80078 16.4012C7.80078 16.1012 8.04078 15.8612 8.34078 15.8612C8.64078 15.8612 8.88078 16.1012 8.88078 16.4012C8.88078 16.9562 9.32328 17.3987 9.87078 17.3987C10.4183 17.3987 10.8683 16.9487 10.8683 16.4012C10.8683 15.8537 10.4183 15.4037 9.87078 15.4037H9.81828C9.27874 15.389 8.76617 15.1646 8.38946 14.7781C8.01274 14.3916 7.80156 13.8734 7.80078 13.3337C7.80078 12.3737 8.45328 11.5712 9.33828 11.3312V10.4912C9.33828 10.1912 9.57828 9.95117 9.87828 9.95117C10.1783 9.95117 10.4183 10.1912 10.4183 10.4912V11.3312C11.3033 11.5712 11.9558 12.3737 11.9558 13.3337C11.9558 13.6337 11.7158 13.8737 11.4158 13.8737C11.1158 13.8737 10.8758 13.6337 10.8758 13.3337C10.8758 12.7862 10.4258 12.3362 9.87828 12.3362C9.33078 12.3362 8.88078 12.7862 8.88078 13.3337C8.88078 13.8812 9.33078 14.3312 9.87828 14.3312Z" fill="#2A2636"/>
<path d="M5.899 3.64838L7.9885 6.09338L7.76275 6.34538C3.46225 7.30988 0.25 11.1506 0.25 15.7421C0.25 19.7786 3.526 23.0546 7.5625 23.0546H12.19C16.2265 23.0546 19.5025 19.7794 19.5025 15.7429C19.51 11.1506 16.2978 7.30988 11.9973 6.34538C12.0147 6.18689 11.9861 6.02673 11.9148 5.88413L13.6923 3.84938L13.807 3.67238C13.941 3.38013 13.9753 3.05195 13.9046 2.73831C13.8338 2.42468 13.6621 2.14296 13.4156 1.93648C13.1692 1.73001 12.8617 1.61021 12.5406 1.59551C12.2194 1.58081 11.9023 1.67203 11.638 1.85513L11.0058 1.10513C10.8639 0.946417 10.6902 0.819369 10.496 0.732268C10.3018 0.645166 10.0914 0.599965 9.87859 0.599611C9.66574 0.599258 9.4552 0.643759 9.2607 0.730214C9.0662 0.81667 8.8921 0.94314 8.74975 1.10138L8.0875 1.84088C7.82391 1.65397 7.50608 1.55912 7.18317 1.57099C6.86025 1.58287 6.55025 1.70082 6.3011 1.90659C6.05196 2.11236 5.87755 2.39449 5.80487 2.70934C5.73218 3.02419 5.76527 3.35422 5.899 3.64838ZM8.74825 4.68713L7.47625 3.21713C7.77176 3.35953 8.10614 3.39996 8.42707 3.33211C8.74801 3.26426 9.03741 3.09195 9.25 2.84213L9.85 2.06363L10.516 2.85263C10.7237 3.09412 11.0038 3.26204 11.3146 3.33137C11.6255 3.4007 11.9504 3.36774 12.241 3.23738L10.975 4.68713H8.74825ZM1.75 15.7421C1.75 11.2511 5.389 7.61213 9.88 7.61213C14.371 7.61213 18.01 11.2511 18.0025 15.7406V15.7421C18.0019 17.2835 17.3893 18.7616 16.2994 19.8515C15.2095 20.9415 13.7314 21.554 12.19 21.5546H7.5625C6.02111 21.554 4.54303 20.9415 3.4531 19.8515C2.36317 18.7616 1.7506 17.2835 1.75 15.7421Z" fill="#2A2636"/>
</svg>
