<svg width="20" height="21" viewBox="0 0 20 21" fill="none" xmlns="http://www.w3.org/2000/svg">
<path d="M17 9.8252H3M17 9.8252C17.5304 9.8252 18.0391 10.0359 18.4142 10.411C18.7893 10.7861 19 11.2948 19 11.8252V17.8252C19 18.3556 18.7893 18.8643 18.4142 19.2394C18.0391 19.6145 17.5304 19.8252 17 19.8252H3C2.46957 19.8252 1.96086 19.6145 1.58579 19.2394C1.21071 18.8643 1 18.3556 1 17.8252V11.8252C1 11.2948 1.21071 10.7861 1.58579 10.411C1.96086 10.0359 2.46957 9.8252 3 9.8252M17 9.8252V7.8252C17 7.29476 16.7893 6.78605 16.4142 6.41098C16.0391 6.03591 15.5304 5.8252 15 5.8252M3 9.8252V7.8252C3 7.29476 3.21071 6.78605 3.58579 6.41098C3.96086 6.03591 4.46957 5.8252 5 5.8252M15 5.8252V3.8252C15 3.29476 14.7893 2.78605 14.4142 2.41098C14.0391 2.03591 13.5304 1.8252 13 1.8252H7C6.46957 1.8252 5.96086 2.03591 5.58579 2.41098C5.21071 2.78605 5 3.29476 5 3.8252V5.8252M15 5.8252H5" stroke="#2A2636" stroke-width="2" stroke-linecap="round" stroke-linejoin="round"/>
</svg>
