<svg width="24" height="25" viewBox="0 0 24 25" fill="none" xmlns="http://www.w3.org/2000/svg">
<path d="M18.7612 6.06474C17.8823 5.13842 16.8268 4.39751 15.657 3.88571C14.4871 3.3739 13.2266 3.10158 11.9498 3.08481C10.673 3.06804 9.40581 3.30715 8.22292 3.78804C7.04002 4.26893 5.96542 4.98187 5.06251 5.88478C4.1596 6.78769 3.44667 7.86229 2.96578 9.04518C2.48488 10.2281 2.24577 11.4953 2.26254 12.7721C2.27932 14.0489 2.55164 15.3094 3.06344 16.4793C3.57524 17.6491 4.31616 18.7046 5.24248 19.5835C6.12135 20.5098 7.17686 21.2507 8.34671 21.7625C9.51656 22.2743 10.7771 22.5466 12.0539 22.5634C13.3307 22.5802 14.5979 22.3411 15.7808 21.8602C16.9637 21.3793 18.0383 20.6664 18.9412 19.7635C19.8441 18.8605 20.557 17.7859 21.0379 16.6031C21.5188 15.4202 21.7579 14.1529 21.7412 12.8761C21.7244 11.5993 21.4521 10.3388 20.9403 9.16897C20.4285 7.99912 19.6875 6.94362 18.7612 6.06474ZM9.93935 13.3866H14.0644L15.3862 16.2554C15.0301 16.0932 14.6431 16.01 14.2519 16.0116C13.8152 16.0116 13.3846 16.1133 12.9941 16.3085C12.6035 16.5038 12.2638 16.7873 12.0019 17.1366C11.7399 16.7873 11.4002 16.5038 11.0096 16.3085C10.6191 16.1133 10.1885 16.0116 9.75185 16.0116C9.36056 16.01 8.97356 16.0932 8.61748 16.2554L9.93935 13.3866ZM10.455 12.2616L12.0019 8.91474L13.5487 12.2616H10.455ZM12.5644 18.8241C12.5644 18.3766 12.7421 17.9473 13.0586 17.6309C13.3751 17.3144 13.8043 17.1366 14.2519 17.1366C14.6994 17.1366 15.1286 17.3144 15.4451 17.6309C15.7616 17.9473 15.9394 18.3766 15.9394 18.8241V20.2866C14.8939 20.8385 13.744 21.1644 12.5644 21.2429V18.8241ZM8.06435 18.8241C8.06435 18.3766 8.24214 17.9473 8.55861 17.6309C8.87508 17.3144 9.3043 17.1366 9.75185 17.1366C10.1994 17.1366 10.6286 17.3144 10.9451 17.6309C11.2616 17.9473 11.4394 18.3766 11.4394 18.8241V21.2429C10.2597 21.1644 9.10983 20.8385 8.06435 20.2866V18.8241ZM17.9644 18.7866C17.6869 19.0739 17.3859 19.3373 17.0644 19.5741V17.3241C17.0647 17.2426 17.0454 17.1622 17.0081 17.0897L12.5081 7.33974C12.4649 7.24151 12.394 7.15797 12.3041 7.09933C12.2142 7.04068 12.1092 7.00946 12.0019 7.00946C11.8945 7.00946 11.7895 7.04068 11.6996 7.09933C11.6097 7.15797 11.5388 7.24151 11.4956 7.33974L6.9956 17.0897C6.95825 17.1622 6.93896 17.2426 6.93935 17.3241V19.5741C6.61781 19.3373 6.31675 19.0739 6.03935 18.7866C4.85829 17.607 4.05366 16.1036 3.72724 14.4666C3.40083 12.8296 3.56731 11.1326 4.20561 9.59023C4.84392 8.04786 5.92537 6.72948 7.31313 5.8019C8.7009 4.87431 10.3326 4.37919 12.0019 4.37919C13.6711 4.37919 15.3028 4.87431 16.6906 5.8019C18.0783 6.72948 19.1598 8.04786 19.7981 9.59023C20.4364 11.1326 20.6029 12.8296 20.2765 14.4666C19.95 16.1036 19.1454 17.607 17.9644 18.7866Z" fill="black"/>
</svg>
