<svg width="24" height="25" viewBox="0 0 24 25" fill="none" xmlns="http://www.w3.org/2000/svg">
<g clip-path="url(#clip0_548_134)">
<path d="M12 0.825195C13.1016 0.825195 14.1641 0.96582 15.1875 1.24707C16.2109 1.52832 17.168 1.93066 18.0586 2.4541C18.9492 2.97754 19.7578 3.60254 20.4844 4.3291C21.2109 5.05566 21.8359 5.86816 22.3594 6.7666C22.8828 7.66504 23.2852 8.62207 23.5664 9.6377C23.8477 10.6533 23.9922 11.7158 24 12.8252C24 13.9268 23.8594 14.9893 23.5781 16.0127C23.2969 17.0361 22.8945 17.9932 22.3711 18.8838C21.8477 19.7744 21.2227 20.583 20.4961 21.3096C19.7695 22.0361 18.957 22.6611 18.0586 23.1846C17.1602 23.708 16.2031 24.1104 15.1875 24.3916C14.1719 24.6729 13.1094 24.8174 12 24.8252C10.8984 24.8252 9.83594 24.6846 8.8125 24.4033C7.78906 24.1221 6.83203 23.7197 5.94141 23.1963C5.05078 22.6729 4.24219 22.0479 3.51562 21.3213C2.78906 20.5947 2.16406 19.7822 1.64062 18.8838C1.11719 17.9854 0.714844 17.0322 0.433594 16.0244C0.152344 15.0166 0.0078125 13.9502 0 12.8252C0 11.7236 0.140625 10.6611 0.421875 9.6377C0.703125 8.61426 1.10547 7.65723 1.62891 6.7666C2.15234 5.87598 2.77734 5.06738 3.50391 4.34082C4.23047 3.61426 5.04297 2.98926 5.94141 2.46582C6.83984 1.94238 7.79297 1.54004 8.80078 1.25879C9.80859 0.977539 10.875 0.833008 12 0.825195ZM12 23.3252C12.9609 23.3252 13.8867 23.2002 14.7773 22.9502C15.668 22.7002 16.5039 22.3486 17.2852 21.8955C18.0664 21.4424 18.7773 20.8916 19.418 20.2432C20.0586 19.5947 20.6055 18.8877 21.0586 18.1221C21.5117 17.3564 21.8672 16.5205 22.125 15.6143C22.3828 14.708 22.5078 13.7783 22.5 12.8252C22.5 11.8643 22.375 10.9385 22.125 10.0479C21.875 9.15723 21.5234 8.32129 21.0703 7.54004C20.6172 6.75879 20.0664 6.04785 19.418 5.40723C18.7695 4.7666 18.0625 4.21973 17.2969 3.7666C16.5312 3.31348 15.6953 2.95801 14.7891 2.7002C13.8828 2.44238 12.9531 2.31738 12 2.3252C11.0391 2.3252 10.1133 2.4502 9.22266 2.7002C8.33203 2.9502 7.49609 3.30176 6.71484 3.75488C5.93359 4.20801 5.22266 4.75879 4.58203 5.40723C3.94141 6.05566 3.39453 6.7627 2.94141 7.52832C2.48828 8.29395 2.13281 9.12988 1.875 10.0361C1.61719 10.9424 1.49219 11.8721 1.5 12.8252C1.5 13.7861 1.625 14.7119 1.875 15.6025C2.125 16.4932 2.47656 17.3291 2.92969 18.1104C3.38281 18.8916 3.93359 19.6025 4.58203 20.2432C5.23047 20.8838 5.9375 21.4307 6.70312 21.8838C7.46875 22.3369 8.30469 22.6924 9.21094 22.9502C10.1172 23.208 11.0469 23.333 12 23.3252ZM18.9961 13.0127L19.5586 11.3252H20.4375L19.4414 14.3252H18.5625L18 12.6377L17.4375 14.3252H16.5586L15.5625 11.3252H16.4414L17.0039 13.0127L17.5664 11.3252H18.4336L18.9961 13.0127ZM13.5586 11.3252H14.4375L13.4414 14.3252H12.5625L12 12.6377L11.4375 14.3252H10.5586L9.5625 11.3252H10.4414L11.0039 13.0127L11.5664 11.3252H12.4336L12.9961 13.0127L13.5586 11.3252ZM7.55859 11.3252H8.4375L7.44141 14.3252H6.5625L6 12.6377L5.4375 14.3252H4.55859L3.5625 11.3252H4.44141L5.00391 13.0127L5.56641 11.3252H6.43359L6.99609 13.0127L7.55859 11.3252Z" fill="#2A2636"/>
</g>
<defs>
<clipPath id="clip0_548_134">
<rect width="24" height="24" fill="white" transform="translate(0 0.825195)"/>
</clipPath>
</defs>
</svg>
