<svg width="24" height="25" viewBox="0 0 24 25" fill="none" xmlns="http://www.w3.org/2000/svg">
<path d="M11.9984 3.22559C9.45236 3.22559 7.01056 4.23701 5.21021 6.03736C3.40986 7.83771 2.39844 10.2795 2.39844 12.8256C2.39844 15.3717 3.40986 17.8135 5.21021 19.6138C7.01056 21.4142 9.45236 22.4256 11.9984 22.4256C14.5445 22.4256 16.9863 21.4142 18.7867 19.6138C20.587 17.8135 21.5984 15.3717 21.5984 12.8256C21.5984 10.2795 20.587 7.83771 18.7867 6.03736C16.9863 4.23701 14.5445 3.22559 11.9984 3.22559ZM8.50884 5.18159L11.4008 6.86879V8.90879L8.07804 11.2512L6.20604 10.5708L5.45484 7.55639C6.27498 6.53874 7.32051 5.72574 8.50884 5.18159ZM3.63924 13.656L5.83164 11.712L7.68684 12.3852L8.94084 16.3332L8.08044 17.6208H5.10084C4.28184 16.4463 3.77853 15.081 3.63924 13.656ZM10.046 20.9976L9.06804 18.3024L9.92004 17.0268H14.0804L14.9336 18.3024L13.9556 20.9964C12.6705 21.3032 11.3312 21.3044 10.046 20.9976ZM18.896 17.6208H15.9224L15.0584 16.3308L16.2884 12.3864L18.1688 11.7096L20.3576 13.656C20.2183 15.081 19.715 16.4463 18.896 17.6208ZM18.548 7.56479L17.7968 10.5684L15.896 11.2524L12.5996 8.90999V6.86999L15.4904 5.18159C16.6808 5.72729 17.7277 6.54285 18.548 7.56359V7.56479Z" fill="#2A2636"/>
</svg>
