<svg width="24" height="25" viewBox="0 0 24 25" fill="none" xmlns="http://www.w3.org/2000/svg">
<path d="M19.6484 9.86422L14.8084 9.44422L12.9184 4.99422C12.5784 4.18422 11.4184 4.18422 11.0784 4.99422L9.18836 9.45422L4.35836 9.86422C3.47836 9.93422 3.11836 11.0342 3.78836 11.6142L7.45836 14.7942L6.35836 19.5142C6.15836 20.3742 7.08836 21.0542 7.84836 20.5942L11.9984 18.0942L16.1484 20.6042C16.9084 21.0642 17.8384 20.3842 17.6384 19.5242L16.5384 14.7942L20.2084 11.6142C20.8784 11.0342 20.5284 9.93422 19.6484 9.86422ZM11.9984 16.2242L8.23836 18.4942L9.23836 14.2142L5.91836 11.3342L10.2984 10.9542L11.9984 6.92422L13.7084 10.9642L18.0884 11.3442L14.7684 14.2242L15.7684 18.5042L11.9984 16.2242Z" fill="black"/>
</svg>
