<svg width="24" height="19" viewBox="0 0 24 19" fill="none" xmlns="http://www.w3.org/2000/svg">
<path d="M22.5 15.8252C22.5 16.223 22.342 16.6046 22.0607 16.8859C21.7794 17.1672 21.3978 17.3252 21 17.3252H3C2.60218 17.3252 2.22064 17.1672 1.93934 16.8859C1.65804 16.6046 1.5 16.223 1.5 15.8252V6.8252C1.5 6.42737 1.65804 6.04584 1.93934 5.76454C2.22064 5.48323 2.60218 5.3252 3 5.3252H4.758C5.95086 5.32454 7.09465 4.8503 7.938 4.0067L9.183 2.7647C9.4635 2.4841 9.84375 2.32607 10.2405 2.3252H13.7565C14.1543 2.32528 14.5358 2.48337 14.817 2.7647L16.059 4.0067C16.4769 4.42477 16.9732 4.75639 17.5193 4.98263C18.0655 5.20886 18.6508 5.32527 19.242 5.3252H21C21.3978 5.3252 21.7794 5.48323 22.0607 5.76454C22.342 6.04584 22.5 6.42737 22.5 6.8252V15.8252ZM3 3.8252C2.20435 3.8252 1.44129 4.14127 0.87868 4.70387C0.316071 5.26648 0 6.02955 0 6.8252L0 15.8252C0 16.6208 0.316071 17.3839 0.87868 17.9465C1.44129 18.5091 2.20435 18.8252 3 18.8252H21C21.7956 18.8252 22.5587 18.5091 23.1213 17.9465C23.6839 17.3839 24 16.6208 24 15.8252V6.8252C24 6.02955 23.6839 5.26648 23.1213 4.70387C22.5587 4.14127 21.7956 3.8252 21 3.8252H19.242C18.4464 3.82503 17.6835 3.50884 17.121 2.9462L15.879 1.7042C15.3165 1.14155 14.5536 0.825365 13.758 0.825195H10.242C9.44642 0.825365 8.68348 1.14155 8.121 1.7042L6.879 2.9462C6.31652 3.50884 5.55358 3.82503 4.758 3.8252H3Z" fill="#2A2636"/>
<path d="M12 14.3252C11.0054 14.3252 10.0516 13.9301 9.34835 13.2268C8.64509 12.5236 8.25 11.5698 8.25 10.5752C8.25 9.58063 8.64509 8.62681 9.34835 7.92354C10.0516 7.22028 11.0054 6.8252 12 6.8252C12.9946 6.8252 13.9484 7.22028 14.6517 7.92354C15.3549 8.62681 15.75 9.58063 15.75 10.5752C15.75 11.5698 15.3549 12.5236 14.6517 13.2268C13.9484 13.9301 12.9946 14.3252 12 14.3252ZM12 15.8252C13.3924 15.8252 14.7277 15.2721 15.7123 14.2875C16.6969 13.3029 17.25 11.9676 17.25 10.5752C17.25 9.18281 16.6969 7.84745 15.7123 6.86288C14.7277 5.87832 13.3924 5.3252 12 5.3252C10.6076 5.3252 9.27226 5.87832 8.28769 6.86288C7.30312 7.84745 6.75 9.18281 6.75 10.5752C6.75 11.9676 7.30312 13.3029 8.28769 14.2875C9.27226 15.2721 10.6076 15.8252 12 15.8252ZM4.5 7.5752C4.5 7.77411 4.42098 7.96487 4.28033 8.10553C4.13968 8.24618 3.94891 8.3252 3.75 8.3252C3.55109 8.3252 3.36032 8.24618 3.21967 8.10553C3.07902 7.96487 3 7.77411 3 7.5752C3 7.37628 3.07902 7.18552 3.21967 7.04487C3.36032 6.90421 3.55109 6.8252 3.75 6.8252C3.94891 6.8252 4.13968 6.90421 4.28033 7.04487C4.42098 7.18552 4.5 7.37628 4.5 7.5752Z" fill="#2A2636"/>
</svg>
