<svg width="24" height="25" viewBox="0 0 24 25" fill="none" xmlns="http://www.w3.org/2000/svg">
<path d="M8.125 9.8252C8.47 9.8252 8.75 10.1052 8.75 10.4502V12.3252H10.375C10.5408 12.3252 10.6997 12.391 10.8169 12.5083C10.9342 12.6255 11 12.7844 11 12.9502C11 13.116 10.9342 13.2749 10.8169 13.3921C10.6997 13.5093 10.5408 13.5752 10.375 13.5752H8.75V15.2002C8.75 15.366 8.68415 15.5249 8.56694 15.6421C8.44973 15.7593 8.29076 15.8252 8.125 15.8252C7.95924 15.8252 7.80027 15.7593 7.68306 15.6421C7.56585 15.5249 7.5 15.366 7.5 15.2002V13.5752H5.625C5.45924 13.5752 5.30027 13.5093 5.18306 13.3921C5.06585 13.2749 5 13.116 5 12.9502C5 12.7844 5.06585 12.6255 5.18306 12.5083C5.30027 12.391 5.45924 12.3252 5.625 12.3252H7.5V10.4502C7.5 10.1052 7.78 9.8252 8.125 9.8252ZM16 14.5752C16 14.9067 15.8683 15.2247 15.6339 15.4591C15.3995 15.6935 15.0815 15.8252 14.75 15.8252C14.4185 15.8252 14.1005 15.6935 13.8661 15.4591C13.6317 15.2247 13.5 14.9067 13.5 14.5752C13.5 14.2437 13.6317 13.9257 13.8661 13.6913C14.1005 13.4569 14.4185 13.3252 14.75 13.3252C15.0815 13.3252 15.3995 13.4569 15.6339 13.6913C15.8683 13.9257 16 14.2437 16 14.5752ZM16.75 12.3252C17.0815 12.3252 17.3995 12.1935 17.6339 11.9591C17.8683 11.7247 18 11.4067 18 11.0752C18 10.7437 17.8683 10.4257 17.6339 10.1913C17.3995 9.95689 17.0815 9.8252 16.75 9.8252C16.4185 9.8252 16.1005 9.95689 15.8661 10.1913C15.6317 10.4257 15.5 10.7437 15.5 11.0752C15.5 11.4067 15.6317 11.7247 15.8661 11.9591C16.1005 12.1935 16.4185 12.3252 16.75 12.3252ZM2 12.8252C2 8.9592 5.134 5.8252 9 5.8252H15C18.866 5.8252 22 8.9592 22 12.8252C22 16.6912 18.866 19.8252 15 19.8252H9C5.134 19.8252 2 16.6912 2 12.8252ZM9 7.0752C5.8245 7.0752 3.25 9.6497 3.25 12.8252C3.25 16.0007 5.8245 18.5752 9 18.5752H15C18.1755 18.5752 20.75 16.0007 20.75 12.8252C20.75 9.6497 18.1755 7.0752 15 7.0752H9Z" fill="#2A2636"/>
</svg>
