<svg width="24" height="25" viewBox="0 0 24 25" fill="none" xmlns="http://www.w3.org/2000/svg">
<path d="M12 2.82422C6.477 2.82422 2 7.30122 2 12.8242C2 18.3472 6.477 22.8242 12 22.8242C17.523 22.8242 22 18.3472 22 12.8242C22 7.30122 17.523 2.82422 12 2.82422Z" stroke="black" stroke-width="1.5" stroke-linecap="round" stroke-linejoin="round"/>
<path d="M4.26953 19.1702C4.26953 19.1702 6.49853 16.3242 11.9985 16.3242C17.4985 16.3242 19.7285 19.1702 19.7285 19.1702M11.9985 12.8242C12.7942 12.8242 13.5572 12.5081 14.1199 11.9455C14.6825 11.3829 14.9985 10.6199 14.9985 9.82422C14.9985 9.02857 14.6825 8.26551 14.1199 7.7029C13.5572 7.14029 12.7942 6.82422 11.9985 6.82422C11.2029 6.82422 10.4398 7.14029 9.87721 7.7029C9.3146 8.26551 8.99853 9.02857 8.99853 9.82422C8.99853 10.6199 9.3146 11.3829 9.87721 11.9455C10.4398 12.5081 11.2029 12.8242 11.9985 12.8242Z" stroke="black" stroke-width="1.5" stroke-linecap="round" stroke-linejoin="round"/>
</svg>
