<svg width="24" height="25" viewBox="0 0 24 25" fill="none" xmlns="http://www.w3.org/2000/svg">
<path d="M7 22.8252C6.45 22.8252 5.97933 22.6295 5.588 22.2382C5.196 21.8462 5 21.3752 5 20.8252C5 20.2752 5.196 19.8042 5.588 19.4122C5.97933 19.0209 6.45 18.8252 7 18.8252C7.55 18.8252 8.02067 19.0209 8.412 19.4122C8.804 19.8042 9 20.2752 9 20.8252C9 21.3752 8.804 21.8462 8.412 22.2382C8.02067 22.6295 7.55 22.8252 7 22.8252ZM17 22.8252C16.45 22.8252 15.9793 22.6295 15.588 22.2382C15.196 21.8462 15 21.3752 15 20.8252C15 20.2752 15.196 19.8042 15.588 19.4122C15.9793 19.0209 16.45 18.8252 17 18.8252C17.55 18.8252 18.021 19.0209 18.413 19.4122C18.8043 19.8042 19 20.2752 19 20.8252C19 21.3752 18.8043 21.8462 18.413 22.2382C18.021 22.6295 17.55 22.8252 17 22.8252ZM6.15 6.82519L8.55 11.8252H15.55L18.3 6.82519H6.15ZM7 17.8252C6.25 17.8252 5.68333 17.4959 5.3 16.8372C4.91667 16.1792 4.9 15.5252 5.25 14.8752L6.6 12.4252L3 4.8252H1.975C1.69167 4.8252 1.45833 4.72919 1.275 4.53719C1.09167 4.34586 1 4.10853 1 3.8252C1 3.54186 1.096 3.3042 1.288 3.1122C1.47933 2.92086 1.71667 2.8252 2 2.8252H3.625C3.80833 2.8252 3.98333 2.8752 4.15 2.9752C4.31667 3.0752 4.44167 3.21686 4.525 3.4002L5.2 4.8252H19.95C20.4 4.8252 20.7083 4.99186 20.875 5.3252C21.0417 5.65853 21.0333 6.00853 20.85 6.3752L17.3 12.7752C17.1167 13.1085 16.875 13.3669 16.575 13.5502C16.275 13.7335 15.9333 13.8252 15.55 13.8252H8.1L7 15.8252H18.025C18.3083 15.8252 18.5417 15.9209 18.725 16.1122C18.9083 16.3042 19 16.5419 19 16.8252C19 17.1085 18.904 17.3459 18.712 17.5372C18.5207 17.7292 18.2833 17.8252 18 17.8252H7Z" fill="#2A2636"/>
</svg>
