<svg width="24" height="25" viewBox="0 0 24 25" fill="none" xmlns="http://www.w3.org/2000/svg">
<path d="M8.39946 3.82422L4.79982 3.82962C4.32248 3.82962 3.86469 4.01926 3.52715 4.35683C3.18962 4.69439 3 5.15223 3 5.62962V9.22422C3.00011 9.66537 3.16221 10.0911 3.45551 10.4206C3.74882 10.7501 4.15291 10.9604 4.59104 11.0116L4.80342 11.0242L8.40306 11.0188C8.88009 11.0183 9.33742 10.8285 9.67456 10.491C10.0117 10.1535 10.2011 9.6959 10.2011 9.21882V5.62602C10.2014 5.18455 10.0395 4.75836 9.74616 4.42848C9.45282 4.09859 9.04848 3.88803 8.61004 3.83682L8.39946 3.82422ZM19.1984 3.82422L15.5987 3.82962C15.1214 3.82962 14.6636 4.01926 14.3261 4.35683C13.9885 4.69439 13.7989 5.15223 13.7989 5.62962V9.22422C13.799 9.66537 13.9611 10.0911 14.2544 10.4206C14.5477 10.7501 14.9518 10.9604 15.39 11.0116L15.6023 11.0242L19.202 11.0188C19.679 11.0183 20.1363 10.8285 20.4735 10.491C20.8106 10.1535 21 9.6959 21 9.21882V5.62602C21.0003 5.18455 20.8384 4.75836 20.5451 4.42848C20.2517 4.09859 19.8474 3.88803 19.409 3.83682L19.1984 3.82422ZM8.39946 14.6242L4.79982 14.6296C4.32248 14.6296 3.86469 14.8193 3.52715 15.1568C3.18962 15.4944 3 15.9522 3 16.4296V20.0242C3.00011 20.4654 3.16221 20.8911 3.45551 21.2206C3.74882 21.5501 4.15291 21.7604 4.59104 21.8116L4.80342 21.8242L8.40306 21.8188C8.88009 21.8183 9.33742 21.6285 9.67456 21.291C10.0117 20.9535 10.2011 20.4959 10.2011 20.0188V16.426C10.2014 15.9846 10.0395 15.5584 9.74616 15.2285C9.45282 14.8986 9.04848 14.688 8.61004 14.6368L8.39946 14.6242ZM19.1984 14.6242L15.5987 14.6296C15.1214 14.6296 14.6636 14.8193 14.3261 15.1568C13.9885 15.4944 13.7989 15.9522 13.7989 16.4296V20.0242C13.799 20.4654 13.9611 20.8911 14.2544 21.2206C14.5477 21.5501 14.9518 21.7604 15.39 21.8116L15.6023 21.8242L19.202 21.8188C19.679 21.8183 20.1363 21.6285 20.4735 21.291C20.8106 20.9535 21 20.4959 21 20.0188V16.426C21.0003 15.9846 20.8384 15.5584 20.5451 15.2285C20.2517 14.8986 19.8474 14.688 19.409 14.6368L19.1984 14.6242Z" stroke="black" stroke-width="1.4" stroke-linecap="round" stroke-linejoin="round"/>
</svg>
