<svg width="24" height="25" viewBox="0 0 24 25" fill="none" xmlns="http://www.w3.org/2000/svg">
<path d="M4.252 10.8252C4.08416 11.4786 3.99949 12.1506 4 12.8252C4 13.5152 4.088 14.1852 4.252 14.8252H7.1C6.96518 13.4953 6.96518 12.1551 7.1 10.8252H4.252ZM5.07 8.8252H7.416C7.682 7.6082 8.066 6.5182 8.537 5.6112C7.08518 6.31061 5.87722 7.43043 5.07 8.8252ZM19.748 10.8252H16.9C17.0348 12.1551 17.0348 13.4953 16.9 14.8252H19.748C20.0847 13.5131 20.0847 12.1373 19.748 10.8252ZM18.93 8.8252C18.1228 7.43043 16.9148 6.31061 15.463 5.6112C15.935 6.5182 16.318 7.6082 16.584 8.8252H18.93ZM9.112 10.8252C9.03708 11.4892 8.99968 12.157 9 12.8252C9 13.5102 9.038 14.1802 9.112 14.8252H14.888C15.0386 13.4961 15.0386 12.1543 14.888 10.8252H9.112ZM9.47 8.8252H14.53C14.348 8.07349 14.0855 7.34361 13.747 6.6482C13.119 5.3932 12.447 4.8252 12 4.8252C11.552 4.8252 10.881 5.3932 10.253 6.6482C9.938 7.2802 9.673 8.0152 9.47 8.8252ZM5.07 16.8252C5.87722 18.22 7.08518 19.3398 8.537 20.0392C8.065 19.1322 7.682 18.0422 7.416 16.8252H5.07ZM18.93 16.8252H16.584C16.318 18.0422 15.934 19.1322 15.463 20.0392C16.9148 19.3398 18.1228 18.22 18.93 16.8252ZM9.47 16.8252C9.673 17.6352 9.938 18.3702 10.253 19.0022C10.881 20.2572 11.553 20.8252 12 20.8252C12.448 20.8252 13.119 20.2572 13.747 19.0022C14.062 18.3702 14.327 17.6352 14.53 16.8252H9.47ZM12 22.8252C6.477 22.8252 2 18.3482 2 12.8252C2 7.3022 6.477 2.8252 12 2.8252C17.523 2.8252 22 7.3022 22 12.8252C22 18.3482 17.523 22.8252 12 22.8252Z" fill="#2A2636"/>
</svg>
