<svg width="24" height="25" viewBox="0 0 24 25" fill="none" xmlns="http://www.w3.org/2000/svg">
<path d="M19.9464 3.12282C19.8669 3.12282 19.7912 3.16032 19.7117 3.23982L19.1492 3.80232L18.9152 3.56757L18.5867 3.87207L18.8447 4.13007L18.5162 4.43532L18.2822 4.20057L17.9537 4.52907L18.1884 4.76307L17.6492 5.32557C17.4879 5.48682 17.4879 5.63307 17.6492 5.79432L14.5089 8.93532C13.8084 8.37507 13.0614 7.95057 12.3527 7.73982C11.0342 7.34982 9.86266 7.63107 8.95366 8.53632C8.55241 8.93757 8.30641 9.42732 8.20366 10.0131C8.04016 10.9626 7.20241 11.7036 6.21166 11.7711C5.13091 11.8438 4.18141 12.2781 3.46966 12.9898C1.59166 14.8678 1.93216 18.2751 4.24291 20.5836C5.55541 21.8961 7.22791 22.5756 8.76691 22.5756C9.93841 22.5756 11.0252 22.1683 11.8367 21.3568C12.5492 20.6443 12.9827 19.6956 13.0554 18.6148C13.1229 17.6248 13.8407 16.7863 14.7902 16.6221C15.3759 16.5201 15.8889 16.2741 16.2902 15.8721C17.1954 14.9668 17.4767 13.7923 17.0867 12.4746C16.9577 12.0343 16.7267 11.5866 16.4544 11.1381L15.3519 12.2398C15.4697 12.4648 15.5694 12.6823 15.6339 12.8961C15.8649 13.6753 15.7419 14.3106 15.2349 14.8176C15.0534 14.9968 14.8374 15.0958 14.5554 15.1461C12.9324 15.4273 11.6672 16.8508 11.5554 18.5211C11.5089 19.2328 11.2329 19.8486 10.7822 20.3023C9.48691 21.5938 7.04716 21.2548 5.32141 19.5283C3.59566 17.8033 3.23266 15.3358 4.52416 14.0443C4.97866 13.5928 5.59366 13.3176 6.30541 13.2711C7.97566 13.1593 9.39616 11.8941 9.68041 10.2711C9.73066 9.98982 9.82741 9.77307 10.0089 9.59157C10.3577 9.24282 10.7559 9.07557 11.2277 9.07557C11.4414 9.07557 11.6874 9.11982 11.9304 9.19257C12.4029 9.33357 12.9294 9.61182 13.4304 9.98982L10.9232 12.4978C10.6482 12.4346 10.3626 12.4341 10.0875 12.4965C9.81236 12.5589 9.55484 12.6825 9.33409 12.8581C9.11334 13.0338 8.93502 13.2569 8.81241 13.511C8.6898 13.765 8.62605 14.0435 8.62591 14.3256C8.62591 15.3591 9.46666 16.1998 10.5009 16.1998C11.5352 16.1998 12.3759 15.3591 12.3759 14.3248C12.3759 14.2108 12.3497 14.1051 12.3287 13.9963L19.1492 7.15257C19.3104 7.31382 19.4807 7.31382 19.6419 7.15257L20.2044 6.59007L20.4384 6.82482L20.7429 6.52032L20.5089 6.28557L20.8367 5.95782L21.0009 6.28557L21.3054 5.95782L21.0714 5.72307L21.6339 5.16057C21.7952 4.99932 21.7952 4.82982 21.6339 4.66857L20.2037 3.23907C20.136 3.16866 20.044 3.12755 19.9464 3.12282ZM19.8759 4.03557L20.2044 4.36407L18.7509 5.79432L18.4464 5.48982L19.8759 4.03557ZM20.5089 4.59807L20.8367 4.92657L19.3839 6.35607L19.0787 6.02757L20.5089 4.59807ZM6.82141 15.5916L5.76691 16.6461L8.18041 19.0596L9.23491 18.0051L6.82141 15.5916Z" fill="#2A2636"/>
</svg>
