<svg width="40" height="41" viewBox="0 0 40 41" fill="none" xmlns="http://www.w3.org/2000/svg">
<path d="M20 35.2252C15 35.2252 10.58 32.6652 8 28.8252C8.06 24.8252 16 22.6252 20 22.6252C24 22.6252 31.94 24.8252 32 28.8252C30.6778 30.794 28.8917 32.4075 26.7991 33.5236C24.7065 34.6396 22.3716 35.224 20 35.2252ZM20 6.8252C21.5913 6.8252 23.1174 7.45734 24.2426 8.58256C25.3679 9.70777 26 11.2339 26 12.8252C26 14.4165 25.3679 15.9426 24.2426 17.0678C23.1174 18.1931 21.5913 18.8252 20 18.8252C18.4087 18.8252 16.8826 18.1931 15.7574 17.0678C14.6321 15.9426 14 14.4165 14 12.8252C14 11.2339 14.6321 9.70777 15.7574 8.58256C16.8826 7.45734 18.4087 6.8252 20 6.8252ZM20 0.825195C17.3736 0.825195 14.7728 1.34251 12.3463 2.3476C9.91982 3.3527 7.71504 4.82589 5.85786 6.68306C2.10714 10.4338 0 15.5209 0 20.8252C0 26.1295 2.10714 31.2166 5.85786 34.9673C7.71504 36.8245 9.91982 38.2977 12.3463 39.3028C14.7728 40.3079 17.3736 40.8252 20 40.8252C25.3043 40.8252 30.3914 38.7181 34.1421 34.9673C37.8929 31.2166 40 26.1295 40 20.8252C40 9.7652 31 0.825195 20 0.825195Z" fill="#B13CF1"/>
</svg>
