<svg width="24" height="25" viewBox="0 0 24 25" fill="none" xmlns="http://www.w3.org/2000/svg">
<path d="M20 12.8242H10.5M18 15.8242L21 12.8242L18 9.82422M13 7.82422V6.82422C13 6.29379 12.7893 5.78508 12.4142 5.41001C12.0391 5.03493 11.5304 4.82422 11 4.82422H6C5.46957 4.82422 4.96086 5.03493 4.58579 5.41001C4.21071 5.78508 4 6.29379 4 6.82422V18.8242C4 19.3547 4.21071 19.8634 4.58579 20.2384C4.96086 20.6135 5.46957 20.8242 6 20.8242H11C11.5304 20.8242 12.0391 20.6135 12.4142 20.2384C12.7893 19.8634 13 19.3547 13 18.8242V17.8242" stroke="black" stroke-width="2" stroke-linecap="round" stroke-linejoin="round"/>
</svg>
