<svg width="24" height="25" viewBox="0 0 24 25" fill="none" xmlns="http://www.w3.org/2000/svg">
<path d="M6 13.8252H18C18.55 13.8252 19 13.3752 19 12.8252C19 12.2752 18.55 11.8252 18 11.8252H6C5.45 11.8252 5 12.2752 5 12.8252C5 13.3752 5.45 13.8252 6 13.8252ZM4 17.8252H16C16.55 17.8252 17 17.3752 17 16.8252C17 16.2752 16.55 15.8252 16 15.8252H4C3.45 15.8252 3 16.2752 3 16.8252C3 17.3752 3.45 17.8252 4 17.8252ZM7 8.8252C7 9.3752 7.45 9.8252 8 9.8252H20C20.55 9.8252 21 9.3752 21 8.8252C21 8.2752 20.55 7.8252 20 7.8252H8C7.45 7.8252 7 8.2752 7 8.8252Z" fill="#2A2636"/>
</svg>
