<svg width="18" height="19" viewBox="0 0 18 19" fill="none" xmlns="http://www.w3.org/2000/svg">
<path d="M9 9.96771V17.3963M10.1337 1.47285L15.848 4.73799C16.198 4.93792 16.4889 5.22686 16.6912 5.57549C16.8936 5.92412 17.0001 6.32005 17 6.72314V12.0694C17.0001 12.4725 16.8936 12.8684 16.6912 13.2171C16.4889 13.5657 16.198 13.8546 15.848 14.0546L10.1337 17.3197C9.78842 17.5169 9.39765 17.6207 9 17.6207C8.60235 17.6207 8.21158 17.5169 7.86629 17.3197L2.152 14.0546C1.80199 13.8546 1.51108 13.5657 1.30877 13.2171C1.10645 12.8684 0.999929 12.4725 1 12.0694V6.72314C0.999929 6.32005 1.10645 5.92412 1.30877 5.57549C1.51108 5.22686 1.80199 4.93792 2.152 4.73799L7.86629 1.47285C8.21158 1.27562 8.60235 1.17188 9 1.17188C9.39765 1.17188 9.78842 1.27562 10.1337 1.47285Z" stroke="#2A2636" stroke-linecap="round" stroke-linejoin="round"/>
<path d="M1.57031 5.96777L7.91546 9.38492C8.24845 9.56417 8.62071 9.658 8.99888 9.658C9.37706 9.658 9.74932 9.56417 10.0823 9.38492L16.4275 5.96777" stroke="#2A2636" stroke-linecap="round" stroke-linejoin="round"/>
</svg>
