<svg width="24" height="25" viewBox="0 0 24 25" fill="none" xmlns="http://www.w3.org/2000/svg">
<path d="M19 7.82422H16V6.82422C16 5.76335 15.5786 4.74594 14.8284 3.99579C14.0783 3.24565 13.0609 2.82422 12 2.82422C10.9391 2.82422 9.92172 3.24565 9.17157 3.99579C8.42143 4.74594 8 5.76335 8 6.82422V7.82422H5C4.73478 7.82422 4.48043 7.92958 4.29289 8.11711C4.10536 8.30465 4 8.559 4 8.82422V19.8242C4 20.6199 4.31607 21.3829 4.87868 21.9455C5.44129 22.5081 6.20435 22.8242 7 22.8242H17C17.7956 22.8242 18.5587 22.5081 19.1213 21.9455C19.6839 21.3829 20 20.6199 20 19.8242V8.82422C20 8.559 19.8946 8.30465 19.7071 8.11711C19.5196 7.92958 19.2652 7.82422 19 7.82422ZM10 6.82422C10 6.29379 10.2107 5.78508 10.5858 5.41001C10.9609 5.03493 11.4696 4.82422 12 4.82422C12.5304 4.82422 13.0391 5.03493 13.4142 5.41001C13.7893 5.78508 14 6.29379 14 6.82422V7.82422H10V6.82422ZM18 19.8242C18 20.0894 17.8946 20.3438 17.7071 20.5313C17.5196 20.7189 17.2652 20.8242 17 20.8242H7C6.73478 20.8242 6.48043 20.7189 6.29289 20.5313C6.10536 20.3438 6 20.0894 6 19.8242V9.82422H8V10.8242C8 11.0894 8.10536 11.3438 8.29289 11.5313C8.48043 11.7189 8.73478 11.8242 9 11.8242C9.26522 11.8242 9.51957 11.7189 9.70711 11.5313C9.89464 11.3438 10 11.0894 10 10.8242V9.82422H14V10.8242C14 11.0894 14.1054 11.3438 14.2929 11.5313C14.4804 11.7189 14.7348 11.8242 15 11.8242C15.2652 11.8242 15.5196 11.7189 15.7071 11.5313C15.8946 11.3438 16 11.0894 16 10.8242V9.82422H18V19.8242Z" fill="#2A2636"/>
</svg>
