<svg width="24" height="25" viewBox="0 0 24 25" fill="none" xmlns="http://www.w3.org/2000/svg">
<path d="M23.1861 12.5242C23.158 12.4492 22.3611 10.6867 20.5986 8.91484C18.2455 6.57109 15.2736 5.32422 12.0018 5.32422C8.72989 5.32422 5.75801 6.57109 3.40489 8.91484C1.64239 10.6867 0.845511 12.4492 0.817386 12.5242C0.77553 12.6187 0.753906 12.7209 0.753906 12.8242C0.753906 12.9276 0.77553 13.0297 0.817386 13.1242C0.845511 13.1992 1.64239 14.9617 3.40489 16.7336C5.75801 19.0773 8.72989 20.3242 12.0018 20.3242C15.2736 20.3242 18.2455 19.0773 20.5986 16.7336C22.3611 14.9617 23.158 13.1992 23.1861 13.1242C23.228 13.0297 23.2496 12.9276 23.2496 12.8242C23.2496 12.7209 23.228 12.6187 23.1861 12.5242ZM12.0018 18.8242C9.11426 18.8242 6.59239 17.7742 4.51114 15.7023C3.65101 14.8552 2.9212 13.8853 2.34551 12.8242C2.92042 11.7598 3.65026 10.7867 4.51114 9.93672C6.59239 7.87422 9.11426 6.82422 12.0018 6.82422C14.8893 6.82422 17.4111 7.87422 19.4924 9.93672C20.3533 10.7867 21.0831 11.7598 21.658 12.8242C20.983 14.0898 18.0393 18.8242 12.0018 18.8242ZM12.0018 8.32422C11.1117 8.32422 10.2417 8.58814 9.5017 9.08261C8.76167 9.57707 8.1849 10.2799 7.8443 11.1021C7.50371 11.9244 7.41459 12.8292 7.58823 13.7021C7.76186 14.575 8.19044 15.3769 8.81978 16.0062C9.44912 16.6355 10.2509 17.0641 11.1239 17.2378C11.9968 17.4114 12.9016 17.3223 13.7238 16.9817C14.5461 16.6411 15.2489 16.0643 15.7434 15.3243C16.2378 14.5843 16.5018 13.7142 16.5018 12.8242C16.5018 11.6307 16.0277 10.4862 15.1837 9.64224C14.3398 8.79832 13.1952 8.32422 12.0018 8.32422ZM12.0018 15.8242C11.4084 15.8242 10.8284 15.6483 10.3351 15.3186C9.8417 14.989 9.45719 14.5204 9.23012 13.9723C9.00306 13.4241 8.94365 12.8209 9.05941 12.2389C9.17516 11.657 9.46088 11.1225 9.88044 10.7029C10.3 10.2833 10.8345 9.99762 11.4165 9.88186C11.9984 9.76611 12.6016 9.82552 13.1498 10.0526C13.698 10.2796 14.1665 10.6642 14.4962 11.1575C14.8258 11.6509 15.0018 12.2309 15.0018 12.8242C14.9993 13.6191 14.6824 14.3807 14.1204 14.9428C13.5583 15.5049 12.7967 15.8217 12.0018 15.8242Z" fill="black"/>
</svg>
